<?xml version="1.0" encoding="utf-8"?>
<!-- Generator: Adobe Illustrator 27.6.1, SVG Export Plug-In . SVG Version: 6.00 Build 0)  -->
<svg version="1.1" id="Layer_2" xmlns="http://www.w3.org/2000/svg" xmlns:xlink="http://www.w3.org/1999/xlink" x="0px" y="0px"
	 viewBox="0 0 595.28 841.89" style="enable-background:new 0 0 595.28 841.89;" xml:space="preserve">
<style type="text/css">
	.st0{stroke:#000000;stroke-width:7;stroke-linecap:round;stroke-linejoin:round;stroke-miterlimit:10;}
	.st1{fill:none;stroke:#FFFFFF;stroke-width:12;stroke-linecap:round;stroke-linejoin:round;stroke-miterlimit:10;}
	.st2{fill:none;stroke:#FFFFFF;stroke-width:7;stroke-linecap:round;stroke-linejoin:round;stroke-miterlimit:10;}
</style>
<symbol  id="New_Symbol" viewBox="-300 -220 600 440">
	<g>
		<g>
			<path class="st0" d="M-4.2,96.54c-14.41,0.12-27.15-1.17-37.73-2.91c-11.5,17.08-26.61,36.37-46.34,55.6
				c-22.51,21.96-47.61,46.43-64.91,39.52c-9.94-3.97-14.05-16.74-16.3-28.27c-4.62-23.64-5.77-63.5-6.47-126.26
				c-0.55-49.04-0.57-90.21-0.48-120.24c0.77-3.75,2.15-9.12,4.8-15.18c10.04-22.92,29.67-35.97,53.18-48.03
				c42.41-21.75,85.26-33.99,114.24-40.73"/>
			<path class="st1" d="M-111.32-55.1c7.01,0.7,19.42,1.02,33.74-3.8c15.89-5.35,26.26-14.37,31.37-19.49"/>
			<path class="st2" d="M-166.87-59.16"/>
			<path class="st2" d="M-288.1-106.56"/>
			<path class="st2" d="M-155.85-81.62"/>
			<path class="st2" d="M-151-104.07"/>
		</g>
	</g>
	<g>
		<g>
			<path class="st0" d="M-4.2-189.95h8.4c28.98,6.74,71.83,18.98,114.24,40.73c23.5,12.05,43.13,25.11,53.18,48.03
				c2.65,6.06,4.04,11.43,4.8,15.18c0.1,30.03,0.07,71.2-0.48,120.24c-0.7,62.76-1.85,102.62-6.47,126.26
				c-2.25,11.53-6.37,24.3-16.3,28.27c-17.3,6.91-42.4-17.56-64.91-39.52C68.54,130,53.43,110.71,41.93,93.63
				c-10.58,1.74-23.32,3.03-37.73,2.91h-8.4l-31.25-1.95L-90.34,72.2c18.27-34.16,37.6-76.27,53.99-125.85
				C-19.53-104.49-9.85-150.9-4.2-189.95z"/>
			<path class="st1" d="M111.32-55.1c-7.01,0.7-19.42,1.02-33.74-3.8c-15.89-5.35-26.26-14.37-31.37-19.49"/>
			<path class="st2" d="M166.87-59.16"/>
			<path class="st2" d="M288.1-106.56"/>
			<path class="st2" d="M155.85-81.62"/>
			<path class="st2" d="M151-104.07"/>
		</g>
	</g>
	<path class="st0" d="M-50.18-50.03"/>
</symbol>
<use xlink:href="#New_Symbol"  width="576.19" height="386.89" id="XMLID_00000029735646863288372000000014196235196575938486_" x="-288.1" y="-193.45" transform="matrix(1 0 0 -1 297.6378 242.9425)" style="overflow:visible;"/>
</svg>
